<?xml version="1.0" standalone="no"?>
<!DOCTYPE svg PUBLIC "-//W3C//DTD SVG 20010904//EN"
 "http://www.w3.org/TR/2001/REC-SVG-20010904/DTD/svg10.dtd">
<svg version="1.0" xmlns="http://www.w3.org/2000/svg"
 width="400.000000pt" height="400.000000pt" viewBox="0 0 400.000000 400.000000"
 preserveAspectRatio="xMidYMid meet">
<metadata>
Created by potrace 1.14, written by Peter Selinger 2001-2017
</metadata>
<g transform="translate(0.000000,400.000000) scale(0.100000,-0.100000)"
fill="#000000" stroke="none">
<path d="M278 3981 c-31 -10 -72 -28 -92 -40 -56 -35 -133 -126 -158 -189
l-23 -57 -2 -1685 -3 -1685 23 -66 c38 -112 121 -200 227 -240 49 -18 97 -19
1759 -19 l1709 0 57 25 c73 33 154 109 191 182 l29 58 3 1717 c2 1677 2 1719
-17 1768 -40 106 -128 189 -240 227 l-66 22 -1670 0 c-1585 0 -1673 -1 -1727
-18z"/>
</g>
</svg>
